# xmcd
#
# Track frame offsets: 
#        150
#        9743
#        22266
#        33082
#        43389
#        55935
#        67777
#        83347
#
# Disc length: 1346 seconds
#
# Revision: 0
# Processed by: cddbd v1.5.2PL0 Copyright (c) Steve Scherf et al.
# Submitted via: ExactAudioCopyFreeDBPlugin 1.0
#
DISCID=5c054008
DTITLE=Dolly Parton - Essential Dolly Parton - Disc 3
DYEAR=2010
DGENRE=Country
TTITLE0=Something Fishy
TTITLE1=In The Good Old Days (When Times Were Bad)
TTITLE2=Just Someone That I Used To Know
TTITLE3=My Blue Tears
TTITLE4=Early Morning Breeze
TTITLE5=Baby I'm Burnin'
TTITLE6=Think About Love
TTITLE7=Yellow Roses
EXTD=
EXTT0=
EXTT1=
EXTT2=
EXTT3=
EXTT4=
EXTT5=
EXTT6=
EXTT7=
PLAYORDER=
